<?xml version="1.0" standalone="no"?>
<!DOCTYPE svg PUBLIC "-//W3C//DTD SVG 20010904//EN"
 "http://www.w3.org/TR/2001/REC-SVG-20010904/DTD/svg10.dtd">
<svg version="1.0" xmlns="http://www.w3.org/2000/svg"
 width="320.000000pt" height="320.000000pt" viewBox="0 0 320.000000 320.000000"
 preserveAspectRatio="xMidYMid meet">
<metadata>
Created by potrace 1.11, written by Peter Selinger 2001-2013
</metadata>
<g transform="translate(0.000000,320.000000) scale(0.100000,-0.100000)"
fill="#000000" stroke="none">
<path d="M434 2202 c-16 -15 -57 -49 -89 -77 -129 -110 -149 -128 -151 -139
-1 -6 -6 -36 -12 -66 -6 -30 -14 -75 -17 -100 -4 -24 -8 -47 -10 -50 -1 -3 -6
-27 -9 -55 -4 -27 -11 -68 -16 -90 -5 -22 -11 -56 -14 -75 -3 -19 -15 -87 -26
-150 -12 -63 -24 -133 -26 -155 -3 -22 -9 -58 -14 -80 -5 -22 -10 -52 -10 -67
l0 -28 229 0 230 0 10 53 c12 57 16 83 31 172 5 33 12 71 15 85 3 14 7 36 10
50 2 14 16 93 30 175 14 83 28 165 31 184 3 18 7 41 9 50 1 9 6 36 10 61 5 37
15 53 53 87 l47 43 208 0 208 0 -5 -32 c-29 -176 -35 -192 -79 -230 l-42 -37
-157 -1 c-143 0 -158 -2 -159 -17 0 -10 -2 -27 -5 -38 -2 -11 -6 -40 -9 -64
-4 -25 -8 -47 -10 -50 -2 -3 -6 -29 -9 -57 l-7 -50 271 0 271 1 171 145 c94
80 174 147 179 150 9 6 21 64 70 345 12 66 23 123 26 128 2 4 -267 7 -599 7
l-603 -1 -31 -27z"/>
<path d="M1785 2218 c-2 -7 -13 -67 -24 -133 -17 -96 -18 -123 -8 -136 6 -10
38 -50 71 -89 l59 -70 -24 -21 c-23 -20 -92 -79 -152 -130 -30 -26 -30 -26
-92 -384 -15 -82 -29 -158 -31 -167 -5 -17 11 -18 230 -18 l234 0 6 28 c8 35
13 62 20 103 3 19 19 108 35 198 26 145 33 167 58 193 48 51 65 55 244 54
l166 -1 27 -32 c20 -24 26 -40 23 -60 -3 -15 -15 -84 -27 -153 -12 -69 -24
-138 -26 -155 -3 -16 -9 -52 -15 -80 -6 -27 -12 -60 -15 -72 l-4 -23 234 0
234 0 6 27 c8 36 13 63 20 104 3 19 19 109 36 201 16 92 30 176 30 187 0 11
-32 58 -70 105 l-70 85 102 87 103 86 12 67 c6 36 12 99 12 139 l1 72 -222 -2
-222 -3 -7 -35 c-4 -19 -12 -69 -19 -110 -12 -70 -15 -78 -58 -117 l-46 -43
-177 1 -176 2 -25 31 c-26 32 -27 48 -8 136 5 25 12 66 16 93 l6 47 -231 0
c-176 0 -233 -3 -236 -12z"/>
</g>
</svg>
